<svg xmlns="http://www.w3.org/2000/svg" viewBox="0 0 560 120" role="img" aria-labelledby="title desc">
  <title id="title">Elementalys logo</title>
  <desc id="desc">Elementalys logo with mark and light wordmark.</desc>
  <defs>
    <linearGradient id="mark" x1="0" y1="8" x2="86" y2="104" gradientUnits="userSpaceOnUse">
      <stop offset="0" stop-color="#55d6ba"/>
      <stop offset="0.42" stop-color="#2498f2"/>
      <stop offset="1" stop-color="#073f7a"/>
    </linearGradient>
    <linearGradient id="word" x1="0" y1="20" x2="0" y2="95" gradientUnits="userSpaceOnUse">
      <stop offset="0" stop-color="#ffffff"/>
      <stop offset="0.5" stop-color="#cfd8d4"/>
      <stop offset="1" stop-color="#f4f8f5"/>
    </linearGradient>
    <filter id="soft-shadow" x="-20%" y="-20%" width="140%" height="150%">
      <feDropShadow dx="0" dy="10" stdDeviation="8" flood-color="#000000" flood-opacity="0.32"/>
    </filter>
  </defs>
  <g filter="url(#soft-shadow)">
    <path d="M24 28c0-4.4 3.6-8 8-8h60c4.4 0 7.4 3.6 6.6 7.9l-2.1 11.2c-.8 4.2-4.7 7.3-9 7.3H45.8c-2.1 0-4.1.7-5.8 1.9L24 60.4V28Z" fill="url(#mark)"/>
    <path d="M24 59.8 40 47.6c1.6-1.2 3.6-1.9 5.7-1.9h39.4c4.5 0 7.9 4 7.2 8.4L90.7 64c-.7 4.1-4.4 7.1-8.6 7.1H43.6c-2.1 0-4.1.7-5.8 2L24 83.7V59.8Z" fill="url(#mark)" opacity="0.94"/>
    <path d="M24 83.4 37.8 72.9c1.7-1.3 3.7-2 5.8-2h44.2c4.4 0 7.8 3.8 7.3 8.2l-1.5 11.3c-.6 4.4-4.4 7.6-8.8 7.6H37.2c-7.3 0-13.2-5.9-13.2-13.2v-1.4Z" fill="url(#mark)" opacity="0.82"/>
    <text x="126" y="78" fill="url(#word)" font-family="Arial Black, Impact, Inter, Segoe UI, sans-serif" font-size="54" font-weight="900" letter-spacing="2">ELEMENTALYS</text>
  </g>
</svg>
